<svg xmlns="http://www.w3.org/2000/svg" viewBox="0 0 520 260" role="img" aria-label="IA Juice">
  <rect width="520" height="260" fill="white"/>

  <g transform="translate(44 22)">
    <circle cx="72" cy="28" r="14" fill="#f36a1d"/>

    <path d="M62 78
             C62 56 74 42 93 42
             C111 42 123 56 123 76
             C123 88 120 103 114 121
             L93 183
             C91 190 90 197 90 203
             C90 213 96 219 106 219
             C120 219 133 209 149 187
             L164 198
             C145 229 123 244 95 244
             C61 244 41 226 41 194
             C41 182 44 169 49 154
             L72 87
             C74 81 75 77 75 73
             C75 68 73 65 69 65
             C64 65 62 69 62 78 Z"
          fill="#f36a1d"/>

    <path d="M180 122
             C191 88 220 42 266 42
             C287 42 302 55 302 77
             C302 87 299 99 293 116
             L270 183
             C268 190 267 196 267 202
             C267 213 273 219 283 219
             C297 219 311 208 326 187
             L341 198
             C321 229 299 244 271 244
             C238 244 217 224 217 192
             C217 180 220 166 225 151
             L247 88
             C250 79 251 74 251 70
             C251 65 248 62 243 62
             C229 62 213 84 197 128
             C187 156 182 179 182 197
             C182 226 163 244 134 244
             C105 244 87 224 87 193
             L87 186
             L113 186
             C113 208 120 219 133 219
             C146 219 153 209 153 190
             C153 173 159 152 180 122 Z"
          fill="#f36a1d"/>

    <path d="M224 28
             C246 44 264 62 278 80
             C293 98 300 118 300 141
             C300 164 293 184 280 200
             C253 196 228 184 210 165
             C192 146 182 121 182 92
             C182 68 196 42 224 28 Z"
          fill="#279943"/>

    <path d="M342 132
             C355 111 379 98 411 98
             C420 98 429 99 437 101
             C437 129 429 151 414 168
             C398 186 376 194 348 191
             C344 183 342 175 342 166
             C342 154 342 143 342 132 Z"
          fill="#279943"/>

    <path d="M242 78
             C264 103 275 133 275 167
             C275 174 275 180 274 187"
          fill="none"
          stroke="#ffffff"
          stroke-width="10"
          stroke-linecap="round"/>

    <path d="M406 116
             C389 123 373 136 359 151"
          fill="none"
          stroke="#ffffff"
          stroke-width="8"
          stroke-linecap="round"/>

    <text x="18" y="252"
          fill="#279943"
          font-family="Trebuchet MS, Arial, sans-serif"
          font-size="96"
          font-weight="300"
          letter-spacing="18">juice</text>
  </g>
</svg>
